<?xml version="1.0" encoding="UTF-8"?>
<svg id="a" xmlns="http://www.w3.org/2000/svg" viewBox="0 0 422.302 98.186">
  <defs>
    <style>
      .b {
        fill: #fff;
      }
    </style>
  </defs>
  <g>
    <path class="b" d="M7.586,14.181H29.976c11.61,0,19.31,7.22,19.31,18.06s-7.7,18.06-19.31,18.06H7.586V14.181Zm29.62,18.15c0-5.92-3.61-9.58-10.4-9.58h-7.42v18.97h7.42c6.84,0,10.4-3.47,10.4-9.39Z"/>
    <path class="b" d="M56.796,14.181h11.8V50.301h-11.8V14.181Z"/>
    <path class="b" d="M75.136,50.301L93.096,14.181h14.35l18.06,36.12h-13.63l-3.32-7.51h-17.19l-3.32,7.51h-12.91ZM111.886,2.331l-7.9,8.33h-10.4l5.06-8.33s13.24,0,13.24,0Zm-6.36,33.61l-5.54-12.57-5.59,12.57h11.13Z"/>
    <path class="b" d="M150.696,12.981c7.46,0,13.29,1.06,17.87,2.17l.43,8.86c-5.39-1.73-11.17-2.74-17.1-2.74s-8.19,1.06-8.19,2.89c0,6.07,27.26-.77,27.26,15.07,0,7.99-6.89,12.18-19.12,12.18-7.61,0-14.3-1.54-20.13-3.95l-.48-9.44c5.63,2.89,12.09,4.57,19.17,4.57,5.68,0,7.99-1.2,7.99-3.13,0-6.4-27.16,.29-27.11-15.51,.05-7.46,6.55-10.98,19.41-10.98v.01Z"/>
    <path class="b" d="M178.716,14.181h28.75c7.85,0,12.09,5.06,12.09,11.99,0,7.8-5.3,12.28-12.09,12.28h-16.95v11.85h-11.8V14.181Zm28.75,12.14c0-2.94-1.88-3.95-6.02-3.95h-10.93v7.9h11.27c3.9,0,5.68-1.06,5.68-3.95Z"/>
    <path class="b" d="M225.186,32.241c0-11.65,8.33-19.12,23.07-19.12s23.07,7.46,23.07,19.12-8.33,19.17-23.07,19.17-23.07-7.46-23.07-19.17h0Zm33.52,0c0-6.31-3.8-10.06-10.4-10.16-6.74-.1-10.5,3.66-10.5,10.16s3.76,10.11,10.45,10.11,10.45-3.76,10.45-10.11h0Z"/>
    <path class="b" d="M278.826,14.181h28.46c7.85,0,12.57,4.72,12.57,11.8,0,6.65-4.72,10.26-11.8,10.74l12.62,13.58h-14.35l-11.22-13.24h-4.48v13.24h-11.8V14.181Zm28.99,11.89c0-2.84-1.93-3.85-6.07-3.85h-11.12v7.66h11.46c3.9,0,5.73-1.06,5.73-3.8v-.01Z"/>
    <path class="b" d="M324.326,50.301l17.96-36.12h14.35l18.06,36.12h-13.63l-3.32-7.51h-17.19l-3.32,7.51h-12.91Zm30.39-14.35l-5.54-12.57-5.59,12.57h11.13Z"/>
    <path class="b" d="M399.876,12.981c7.46,0,13.29,1.06,17.87,2.17l.43,8.86c-5.39-1.73-11.17-2.74-17.1-2.74s-8.19,1.06-8.19,2.89c0,6.07,27.26-.77,27.26,15.07,0,7.99-6.89,12.18-19.12,12.18-7.61,0-14.3-1.54-20.13-3.95l-.48-9.44c5.63,2.89,12.09,4.57,19.17,4.57,5.68,0,7.99-1.2,7.99-3.13,0-6.4-27.16,.29-27.11-15.51,.05-7.46,6.55-10.98,19.41-10.98v.01Z"/>
  </g>
  <g>
    <path class="b" d="M7.586,14.181H29.976c11.61,0,19.31,7.22,19.31,18.06s-7.7,18.06-19.31,18.06H7.586V14.181Zm29.62,18.15c0-5.92-3.61-9.58-10.4-9.58h-7.42v18.97h7.42c6.84,0,10.4-3.47,10.4-9.39Z"/>
    <path class="b" d="M56.796,14.181h11.8V50.301h-11.8V14.181Z"/>
    <path class="b" d="M75.136,50.301L93.096,14.181h14.35l18.06,36.12h-13.63l-3.32-7.51h-17.19l-3.32,7.51h-12.91ZM111.886,2.331l-7.9,8.33h-10.4l5.06-8.33s13.24,0,13.24,0Zm-6.36,33.61l-5.54-12.57-5.59,12.57h11.13Z"/>
    <path class="b" d="M150.696,12.981c7.46,0,13.29,1.06,17.87,2.17l.43,8.86c-5.39-1.73-11.17-2.74-17.1-2.74s-8.19,1.06-8.19,2.89c0,6.07,27.26-.77,27.26,15.07,0,7.99-6.89,12.18-19.12,12.18-7.61,0-14.3-1.54-20.13-3.95l-.48-9.44c5.63,2.89,12.09,4.57,19.17,4.57,5.68,0,7.99-1.2,7.99-3.13,0-6.4-27.16,.29-27.11-15.51,.05-7.46,6.55-10.98,19.41-10.98v.01Z"/>
    <path class="b" d="M178.716,14.181h28.75c7.85,0,12.09,5.06,12.09,11.99,0,7.8-5.3,12.28-12.09,12.28h-16.95v11.85h-11.8V14.181Zm28.75,12.14c0-2.94-1.88-3.95-6.02-3.95h-10.93v7.9h11.27c3.9,0,5.68-1.06,5.68-3.95Z"/>
    <path class="b" d="M225.186,32.241c0-11.65,8.33-19.12,23.07-19.12s23.07,7.46,23.07,19.12-8.33,19.17-23.07,19.17-23.07-7.46-23.07-19.17h0Zm33.52,0c0-6.31-3.8-10.06-10.4-10.16-6.74-.1-10.5,3.66-10.5,10.16s3.76,10.11,10.45,10.11,10.45-3.76,10.45-10.11h0Z"/>
    <path class="b" d="M278.826,14.181h28.46c7.85,0,12.57,4.72,12.57,11.8,0,6.65-4.72,10.26-11.8,10.74l12.62,13.58h-14.35l-11.22-13.24h-4.48v13.24h-11.8V14.181Zm28.99,11.89c0-2.84-1.93-3.85-6.07-3.85h-11.12v7.66h11.46c3.9,0,5.73-1.06,5.73-3.8v-.01Z"/>
    <path class="b" d="M324.326,50.301l17.96-36.12h14.35l18.06,36.12h-13.63l-3.32-7.51h-17.19l-3.32,7.51h-12.91Zm30.39-14.35l-5.54-12.57-5.59,12.57h11.13Z"/>
    <path class="b" d="M399.876,12.981c7.46,0,13.29,1.06,17.87,2.17l.43,8.86c-5.39-1.73-11.17-2.74-17.1-2.74s-8.19,1.06-8.19,2.89c0,6.07,27.26-.77,27.26,15.07,0,7.99-6.89,12.18-19.12,12.18-7.61,0-14.3-1.54-20.13-3.95l-.48-9.44c5.63,2.89,12.09,4.57,19.17,4.57,5.68,0,7.99-1.2,7.99-3.13,0-6.4-27.16,.29-27.11-15.51,.05-7.46,6.55-10.98,19.41-10.98v.01Z"/>
  </g>
  <g>
    <path class="b" d="M14.606,90.091c0,1.61,1.03,1.76,2.98,2.05l-.34,1.76c-3.76-.15-4.44-.2-7.17-.2-2.34,0-3.07,.05-6.88,.2l.34-1.76c1.9-.29,2.73-.54,3.27-1.27,.59-.78,.88-2.1,1.42-4.93l3.32-17.23c.39-2.05,.63-3.37,.63-4.2,0-1.61-.83-1.71-2.88-2.05l.34-1.76h13.27c7.47,0,12,2.2,12,7.71,0,7.86-8.05,11.81-16.15,11.81-.98,0-1.71-.05-2.39-.2l-1.12,5.95c-.39,2-.63,3.27-.63,4.1l-.01,.02Zm2.2-12.3c.73,.15,1.42,.19,2.05,.19,5.42,0,8.64-4.1,8.64-8.93,0-3.9-2.39-6.1-5.76-6.1h-2.05l-2.88,14.83v.01Z"/>
    <path class="b" d="M62.476,93.891c-1.85-.1-3.81-.2-7.76-.2s-4.78,.1-6.73,.2l.34-1.76c2.15-.44,3.71-.54,3.71-2.59,0-.93-.15-2.05-.44-3.71l-.15-.98h-10.64l-1.32,2.34c-.98,1.66-1.42,2.73-1.42,3.32,0,1.22,1.32,1.27,2.88,1.61l-.39,1.76c-1.85-.1-3.07-.2-5.07-.2-1.81,0-3.32,.1-5.22,.2l.54-1.76c2.73-.49,3.17-.88,5.56-4.88l15.76-26.55h1.81l4.73,25.23c.98,5.22,1.02,5.66,4.15,6.2l-.34,1.76v.01Zm-11.47-11.42l-1.95-11.96-6.88,11.96s8.83,0,8.83,0Z"/>
    <path class="b" d="M69.216,92.141c1.85-.29,2.73-.54,3.27-1.27,.54-.73,.88-2.1,1.42-4.93l4.44-22.98h-4.34l-6.49,8.39h-1.76l3.22-10.64h26.64l-.83,10.64h-1.76l-3.22-8.39h-4.44l-4.44,23.03c-.39,1.95-.63,3.22-.63,4.1,0,1.56,.98,1.76,2.98,2.05l-.34,1.76c-3.76-.15-4.44-.2-7.17-.2-2.34,0-3.07,.05-6.88,.2l.34-1.76h-.01Z"/>
    <path class="b" d="M105.766,90.141c0,1.61,1.17,1.76,2.93,2l-.34,1.76c-3.76-.15-4.2-.2-6.93-.2-2.34,0-3.07,.05-6.88,.2l.34-1.76c1.9-.29,2.73-.54,3.27-1.27,.59-.78,.88-2.2,1.46-5.08l3.37-17.08c.39-2.05,.54-3.32,.54-4.2,0-1.46-.68-1.66-2.88-2.05l.34-1.76h13.52c7.08,0,12.2,1.85,12.2,7.47,0,4.98-4.15,8.15-9.17,9.61l4.34,10.69c.93,2.24,2.2,3.22,4.88,3.95l-.29,1.51c-3.46-.24-4.49-.24-6.05-.24-1.66,0-2.63,.05-4.25,.2l-5.22-15.13h-.44c-1.37,0-2.05-.1-2.63-.19l-1.42,7.32c-.39,2.05-.68,3.37-.68,4.25h-.01Zm2.54-13.76c.88,.15,1.71,.24,2.49,.24,5.37,0,8.49-3.56,8.49-8,0-3.95-2.49-5.76-5.9-5.76h-2.49l-2.59,13.52h0Z"/>
    <path class="b" d="M143.146,85.991c-.39,2-.59,3.27-.59,4.1,0,1.61,.98,1.76,2.93,2.05l-.34,1.76c-3.76-.15-4.44-.2-7.17-.2-2.34,0-3.07,.05-6.88,.2l.34-1.76c1.9-.29,2.73-.54,3.32-1.27,.59-.78,.88-2.1,1.42-4.93l3.37-17.27c.39-2.05,.59-3.27,.59-4.15,0-1.56-.68-1.66-2.93-2.05l.34-1.76c3.27,.15,4.44,.2,6.78,.2,2.73,0,3.95-.05,7.27-.2l-.34,1.76c-2,.29-2.78,.39-3.37,1.32-.54,.83-.83,2.24-1.32,4.83,0,0-3.42,17.37-3.42,17.37Z"/>
    <path class="b" d="M189.746,89.651c0,1.85,.63,2.2,2.59,2.49l-.29,1.76c-3.81-.15-4.49-.2-7.17-.2-2.1,0-2.88,.05-6.64,.2l.29-1.76c3.9-.59,4.05-.83,4.59-5.42l2.05-17.86-14.88,23.28h-1.76l-5.56-22.93-5.47,19.03c-.24,.93-.44,1.61-.44,2.1,0,1.17,.93,1.42,4.15,1.81l-.34,1.76c-2.83-.1-4.1-.2-6.1-.2-1.42,0-2.93,.1-4.83,.2l.34-1.76c1.9-.29,2.54-.44,3.07-1.17,.58-.78,.93-2.2,1.81-5.12l4.98-17.03c.59-2.05,.93-3.42,.93-4.29,0-1.61-1.07-1.71-3.17-2.05l.34-1.76h9.71l5.32,21.86,13.66-21.86h10.1l-.34,1.76c-3.81,.44-4.1,1.02-4.64,5.86l-1.9,17.47c-.2,1.81-.39,2.98-.39,3.85l-.01-.02Z"/>
    <path class="b" d="M199.946,81.891c.1-11.61,9.12-21.91,19.57-21.91,8.2,0,12.98,4.78,12.98,12.64,0,11.27-8.93,21.76-19.62,21.76-8.2,0-12.98-4.64-12.93-12.49h0Zm25.08-9.86c0-5.56-1.61-9.76-6.15-9.76-7.47,0-11.47,10.69-11.47,19.96,0,5.71,1.66,9.86,6.15,9.86,7.37,0,11.47-10.83,11.47-20.06Z"/>
    <path class="b" d="M274.856,60.711l-.34,1.76c-2.98,.29-3.76,.44-4.34,1.37-.54,.83-.83,2.25-1.37,4.93l-4.88,25.13h-2.29l-15.22-27.08-3.61,18.98c-.39,2.1-.68,3.46-.68,4.34,0,1.66,1.56,1.71,4.25,1.95l-.34,1.81c-3.32-.1-4.49-.2-6.2-.2-1.85,0-3.37,.1-5.27,.2l.34-1.76c1.9-.29,2.68-.49,3.27-1.22,.59-.78,.88-2.2,1.46-5.12l3.27-16.98c.39-2.1,.63-3.42,.63-4.29,0-1.56-.78-1.66-2.88-2l.34-1.81h10.15l11.91,21.28,2.59-13.18c.44-2.1,.58-3.42,.58-4.29,0-1.81-1.27-1.71-4.15-2l.34-1.81c3.32,.1,4.64,.2,6.39,.2s3.17-.1,6.05-.2v-.01Z"/>
    <path class="b" d="M285.346,85.991c-.39,2-.59,3.27-.59,4.1,0,1.61,.98,1.76,2.93,2.05l-.34,1.76c-3.76-.15-4.44-.2-7.17-.2-2.34,0-3.07,.05-6.88,.2l.34-1.76c1.9-.29,2.73-.54,3.32-1.27,.59-.78,.88-2.1,1.42-4.93l3.37-17.27c.39-2.05,.59-3.27,.59-4.15,0-1.56-.68-1.66-2.93-2.05l.34-1.76c3.27,.15,4.44,.2,6.78,.2,2.73,0,3.95-.05,7.27-.2l-.34,1.76c-2,.29-2.78,.39-3.37,1.32-.54,.83-.83,2.24-1.32,4.83l-3.42,17.37h0Z"/>
    <path class="b" d="M324.236,93.891c-1.85-.1-3.81-.2-7.76-.2s-4.78,.1-6.73,.2l.34-1.76c2.15-.44,3.71-.54,3.71-2.59,0-.93-.15-2.05-.44-3.71l-.15-.98h-10.64l-1.32,2.34c-.98,1.66-1.42,2.73-1.42,3.32,0,1.22,1.32,1.27,2.88,1.61l-.39,1.76c-1.85-.1-3.07-.2-5.07-.2-1.81,0-3.32,.1-5.22,.2l.54-1.76c2.73-.49,3.17-.88,5.56-4.88l15.76-26.55h1.81l4.73,25.23c.98,5.22,1.02,5.66,4.15,6.2l-.34,1.76v.01Zm-11.47-11.42l-1.95-11.96-6.88,11.96h8.83Z"/>
    <path class="b" d="M355.176,83.941l-2.93,9.95h-23.13l.34-1.76c1.9-.29,2.73-.59,3.32-1.27,.59-.73,.93-2.15,1.46-4.98l3.32-17.23c.39-2,.59-3.27,.59-4.15,0-1.56-.68-1.66-2.93-2.05l.34-1.76c3.76,.15,4.44,.2,6.78,.2,2.73,0,3.46-.05,7.27-.2l-.34,1.76c-2,.29-2.78,.39-3.37,1.32-.54,.83-.83,2.24-1.32,4.83l-4.44,23.03h7.32l5.95-7.71h1.76l.01,.02Z"/>
    <path class="b" d="M378.066,91.651l5.9-7.32h1.76l-2.88,9.56h-24.89l.34-1.76c2.29-.29,2.88-.59,3.46-1.27,.63-.78,.88-2.15,1.46-5.03l3.46-17.13c.39-2.2,.68-3.46,.68-4.29,0-1.51-1.03-1.66-3.32-1.95l.34-1.76h24.45l-1.32,9.03h-1.76l-2.88-6.78h-8.25l-2.44,12.59h.54c4.73,0,5.37-1.12,6.98-4.73h1.71l-2.29,11.66h-1.71c-.15-3.66-.44-4.68-5.17-4.68h-.44l-2.68,13.86h8.95Z"/>
    <path class="b" d="M414.326,83.161c0,6.88-7.37,11.22-15.57,11.22-3.56,0-6.54-.83-9.13-2.34l3.86-8.15h1.76l.49,7.12c1.46,.93,2.73,1.12,4.2,1.12,4.98,0,7.81-2.34,7.81-5.66,0-3.07-2.59-5.08-5.81-6.78-3.81-2-7.22-4.44-7.22-8.98,0-6.25,6.73-10.74,14.3-10.74,3.27,0,6.1,.83,8.59,2.25l-3.71,7.81h-1.76l-.44-6.78c-1.32-.73-2.49-1.02-4-1.02-3.95,0-6.69,2-6.69,5.27,0,2.98,2.34,4.49,5.42,6.15,4.05,2.2,7.91,4.73,7.91,9.52l-.01-.01Z"/>
  </g>
</svg>