<?xml version="1.0" encoding="UTF-8"?>
<svg id="b" data-name="Layer 2" xmlns="http://www.w3.org/2000/svg" viewBox="0 0 645.2 675.1">
  <defs>
    <style>
      .c {
        fill: #fff;
      }
    </style>
  </defs>
  <g>
    <path class="c" d="M519.7,44.3c-35.5-27-72-32.1-105-27.3-33.2,5.1-62.8,20.1-89.7,40-53.6,40.3-97.4,100.3-149,169.3-51.6,69.1-97.3,131-126.6,193.7-14.6,31.4-25.3,63.2-27.9,95-2.4,31.6,3.3,63.1,27.5,89.3,23.4,26.5,65.1,43.5,116.7,50.7,51.3,7.5,112.4,5.3,169,.4,56.8-5,109.1-12.6,147.9-19,39.4-6.9,65.2-12.6,84.6-26.9,18.4-15.1,29.8-38.5,39.6-79.2,9.3-39.9,16.8-96.9,17.6-160.5,.8-63.3-5.2-133.1-22.9-192-17.2-59.2-46.2-107.4-81.6-133.4ZM66.4,583.7c-43.1-50.4-29.8-111-3.1-169.2,28.3-59.2,69.9-116.1,120.2-182.1,50.3-66.2,90.3-120.8,141.2-158.9,49.9-36.2,110.7-55.9,177.8-8.6,66.4,48.1,94.4,166.6,90.6,271.9-1.2,52.6-8.7,101.2-19.9,138.9-11.4,38.2-26.3,65.5-48.6,86.1-22.7,20.3-51.1,32.4-88.1,43-36.5,10.3-81.6,19.1-128.9,24.3-95.3,11.4-197.3,4.4-241.3-45.6Z"/>
    <path class="c" d="M440.8,129.3c-51.4-37.6-95.6-27.6-133.7-1.6-38.6,27-71.2,70.1-110.6,121-39.4,50.8-73.3,95.6-93.3,140.5-19.2,44.4-24.6,88.8,11.8,128.9,36.5,40.2,118.5,59.4,198.9,60.4,39.9,.9,78.5-1.9,110.2-7.8,32-6.1,57-15.4,75.6-32.8,18.2-17.6,28.8-42.4,34.6-75.5,5.6-32.8,6.5-74.1,1.7-117.3-8.2-87.2-43.9-178.4-95.1-215.9ZM127.1,503.9c-34.3-37-30.2-77.7-12.4-119,18.5-41.6,50.6-83.8,87.6-131.2,37-47.5,67.9-88,103.8-112.8,35.5-24,75.8-32.3,122.8,2.8,47.6,34.2,73.5,111.6,79,182.6,5.3,72.1-9.8,137.8-45.8,173.5-36,35.9-99,51.8-165.6,53.7-66,1.2-135.6-11.7-169.4-49.6Z"/>
    <path class="c" d="M381.9,215.9c-58.8-46.6-102.9,12.4-157.1,78.9-53.6,67.5-100.6,122.6-53.5,170.8,23.7,24.4,73.2,38.9,122.5,42,49.4,2.8,98.7-5.7,125.6-33.8,27-27.9,32.7-78.6,24-130.5-8.7-51.5-31.9-104.1-61.4-127.4Zm-202.2,234.7c-37.4-37.7,4.5-87.2,53.6-148.3,49.5-60.6,89.5-112.5,135.1-76,45.9,37.6,69,162.1,17.7,215.7-50.7,53.8-168.6,45.5-206.4,8.6Z"/>
  </g>
  <g>
    <path class="c" d="M519.7,44.3c-35.5-27-72-32.1-105-27.3-33.2,5.1-62.8,20.1-89.7,40-53.6,40.3-97.4,100.3-149,169.3-51.6,69.1-97.3,131-126.6,193.7-14.6,31.4-25.3,63.2-27.9,95-2.4,31.6,3.3,63.1,27.5,89.3,23.4,26.5,65.1,43.5,116.7,50.7,51.3,7.5,112.4,5.3,169,.4,56.8-5,109.1-12.6,147.9-19,39.4-6.9,65.2-12.6,84.6-26.9,18.4-15.1,29.8-38.5,39.6-79.2,9.3-39.9,16.8-96.9,17.6-160.5,.8-63.3-5.2-133.1-22.9-192-17.2-59.2-46.2-107.4-81.6-133.4ZM66.4,583.7c-43.1-50.4-29.8-111-3.1-169.2,28.3-59.2,69.9-116.1,120.2-182.1,50.3-66.2,90.3-120.8,141.2-158.9,49.9-36.2,110.7-55.9,177.8-8.6,66.4,48.1,94.4,166.6,90.6,271.9-1.2,52.6-8.7,101.2-19.9,138.9-11.4,38.2-26.3,65.5-48.6,86.1-22.7,20.3-51.1,32.4-88.1,43-36.5,10.3-81.6,19.1-128.9,24.3-95.3,11.4-197.3,4.4-241.3-45.6Z"/>
    <path class="c" d="M440.8,129.3c-51.4-37.6-95.6-27.6-133.7-1.6-38.6,27-71.2,70.1-110.6,121-39.4,50.8-73.3,95.6-93.3,140.5-19.2,44.4-24.6,88.8,11.8,128.9,36.5,40.2,118.5,59.4,198.9,60.4,39.9,.9,78.5-1.9,110.2-7.8,32-6.1,57-15.4,75.6-32.8,18.2-17.6,28.8-42.4,34.6-75.5,5.6-32.8,6.5-74.1,1.7-117.3-8.2-87.2-43.9-178.4-95.1-215.9ZM127.1,503.9c-34.3-37-30.2-77.7-12.4-119,18.5-41.6,50.6-83.8,87.6-131.2,37-47.5,67.9-88,103.8-112.8,35.5-24,75.8-32.3,122.8,2.8,47.6,34.2,73.5,111.6,79,182.6,5.3,72.1-9.8,137.8-45.8,173.5-36,35.9-99,51.8-165.6,53.7-66,1.2-135.6-11.7-169.4-49.6Z"/>
    <path class="c" d="M381.9,215.9c-58.8-46.6-102.9,12.4-157.1,78.9-53.6,67.5-100.6,122.6-53.5,170.8,23.7,24.4,73.2,38.9,122.5,42,49.4,2.8,98.7-5.7,125.6-33.8,27-27.9,32.7-78.6,24-130.5-8.7-51.5-31.9-104.1-61.4-127.4Zm-202.2,234.7c-37.4-37.7,4.5-87.2,53.6-148.3,49.5-60.6,89.5-112.5,135.1-76,45.9,37.6,69,162.1,17.7,215.7-50.7,53.8-168.6,45.5-206.4,8.6Z"/>
  </g>
</svg>